<svg width="22" height="22" viewBox="0 0 22 22" fill="none" xmlns="http://www.w3.org/2000/svg">
<g clip-path="url(#clip0_1301_68)">
<path d="M10.084 3.66675H3.66732C3.18109 3.66675 2.71477 3.8599 2.37096 4.20372C2.02714 4.54754 1.83398 5.01385 1.83398 5.50008V18.3334C1.83398 18.8196 2.02714 19.286 2.37096 19.6298C2.71477 19.9736 3.18109 20.1667 3.66732 20.1667H16.5007C16.9869 20.1667 17.4532 19.9736 17.797 19.6298C18.1408 19.286 18.334 18.8196 18.334 18.3334V11.9167" stroke="#0B0C12" stroke-width="1.83333" stroke-linecap="round" stroke-linejoin="round"/>
<path d="M16.959 2.29171C17.3237 1.92704 17.8183 1.72217 18.334 1.72217C18.8497 1.72217 19.3443 1.92704 19.709 2.29171C20.0737 2.65638 20.2785 3.15099 20.2785 3.66671C20.2785 4.18244 20.0737 4.67704 19.709 5.04171L11.0007 13.75L7.33398 14.6667L8.25065 11L16.959 2.29171Z" stroke="#0B0C12" stroke-width="1.83333" stroke-linecap="round" stroke-linejoin="round"/>
</g>
<defs>
<clipPath id="clip0_1301_68">
<rect width="22" height="22" fill="white"/>
</clipPath>
</defs>
</svg>
