<svg width="202" height="37" viewBox="0 0 202 37" fill="none" xmlns="http://www.w3.org/2000/svg">
<path d="M11.9773 29.0451H0V23.7677H11.9773C12.3356 23.7677 12.6428 23.6384 12.8987 23.3797C13.1546 23.121 13.2826 22.8105 13.2826 22.4483C13.2826 22.0732 13.1546 21.8275 12.8987 21.7111C12.6428 21.5947 12.3356 21.5364 11.9773 21.5364H6.52612C5.61758 21.5364 4.76662 21.3618 3.97325 21.0126C3.17988 20.6633 2.48888 20.1912 1.90025 19.5962C1.31162 18.9883 0.844556 18.2833 0.499056 17.4814C0.166352 16.6794 0 15.8193 0 14.9009C0 13.9825 0.166352 13.1224 0.499056 12.3204C0.844556 11.5184 1.31162 10.82 1.90025 10.225C2.48888 9.62996 3.17988 9.16431 3.97325 8.828C4.76662 8.47876 5.61758 8.30414 6.52612 8.30414H17.1407V13.5815H6.52612C6.16782 13.5815 5.86071 13.7109 5.60478 13.9696C5.34886 14.2283 5.22089 14.5387 5.22089 14.9009C5.22089 15.276 5.34886 15.5994 5.60478 15.871C5.86071 16.1297 6.16782 16.259 6.52612 16.259H11.9773C12.8731 16.259 13.7176 16.4143 14.511 16.7247C15.3044 17.0222 15.9954 17.4426 16.584 17.9858C17.1726 18.5291 17.6397 19.1823 17.9852 19.9455C18.3307 20.7086 18.5035 21.5429 18.5035 22.4483C18.5035 23.3667 18.3307 24.2269 17.9852 25.0288C17.6397 25.8179 17.1726 26.5163 16.584 27.1243C15.9954 27.7193 15.3044 28.1914 14.511 28.5406C13.7176 28.8769 12.8731 29.0451 11.9773 29.0451Z" fill="white"/>
<path d="M31.6133 29.0451C30.3464 29.0451 29.1564 28.8058 28.0431 28.3272C26.9298 27.8357 25.9509 27.1696 25.1064 26.3288C24.2746 25.4751 23.6156 24.4856 23.1293 23.3603C22.6559 22.2349 22.4191 21.032 22.4191 19.7514V13.5815H19.8663V8.30414H22.4191V0H27.64V8.30414H35.5865V13.5815H27.64V19.7514C27.64 20.3076 27.7424 20.8315 27.9471 21.323C28.1519 21.8016 28.4334 22.222 28.7917 22.5842C29.15 22.9463 29.5723 23.2374 30.0585 23.4573C30.5448 23.6642 31.063 23.7677 31.6133 23.7677H35.5865V29.0451H31.6133Z" fill="white"/>
<path d="M53.6485 26.6198C53.2262 27.0079 52.772 27.3765 52.2857 27.7257C51.8123 28.0621 51.3132 28.3596 50.7885 28.6182C50.2639 28.864 49.7201 29.058 49.157 29.2003C48.6068 29.3555 48.0437 29.4331 47.4679 29.4331C46.2011 29.4331 45.011 29.2068 43.8977 28.7541C42.7845 28.3013 41.8055 27.6611 40.961 26.8332C40.1292 25.9925 39.4702 24.9771 38.984 23.7871C38.5105 22.5842 38.2738 21.2389 38.2738 19.7514V8.26534H43.4947V19.7514C43.4947 20.4499 43.597 21.0773 43.8018 21.6335C44.0193 22.1767 44.3072 22.6359 44.6655 23.011C45.0238 23.3861 45.4397 23.6707 45.9132 23.8647C46.3994 24.0587 46.9177 24.1557 47.4679 24.1557C48.0053 24.1557 48.5108 24.0329 48.9843 23.7871C49.4705 23.5284 49.8928 23.1921 50.2511 22.7782C50.6094 22.3643 50.8909 21.8986 51.0957 21.3812C51.3004 20.8509 51.4028 20.3076 51.4028 19.7514V8.26534H56.6429V29.0451H55.376L53.6485 26.6198Z" fill="white"/>
<path d="M80.5208 29.0451H79.2539L77.2193 26.193C76.7203 26.6457 76.1892 27.0725 75.6262 27.4735C75.0759 27.8616 74.4937 28.2043 73.8795 28.5018C73.2653 28.7864 72.6318 29.0128 71.9792 29.1809C71.3394 29.3491 70.6868 29.4331 70.0214 29.4331C68.5754 29.4331 67.2126 29.1615 65.933 28.6182C64.6661 28.0621 63.5529 27.2989 62.5931 26.3288C61.6462 25.3457 60.8976 24.1881 60.3474 22.8558C59.7971 21.5106 59.522 20.0489 59.522 18.4709C59.522 16.9058 59.7971 15.4506 60.3474 14.1054C60.8976 12.7602 61.6462 11.5961 62.5931 10.613C63.5529 9.62996 64.6661 8.86034 65.933 8.30414C67.2126 7.74795 68.5754 7.46985 70.0214 7.46985C70.4821 7.46985 70.9555 7.50865 71.4418 7.58626C71.9408 7.66387 72.4207 7.79322 72.8814 7.97431C73.3548 8.14246 73.7963 8.36882 74.2058 8.65338C74.6153 8.93795 74.9608 9.28719 75.2423 9.7011V0H80.5208V29.0451ZM75.2423 18.4709C75.2423 17.7465 75.1015 17.0481 74.82 16.3755C74.5513 15.6899 74.1802 15.0884 73.7067 14.5711C73.2333 14.0407 72.6766 13.6203 72.0368 13.3099C71.4098 12.9865 70.738 12.8249 70.0214 12.8249C69.3048 12.8249 68.6266 12.9542 67.9868 13.2129C67.3598 13.4716 66.8095 13.8467 66.3361 14.3382C65.8754 14.8168 65.5107 15.4053 65.242 16.1038C64.9733 16.8023 64.8389 17.5913 64.8389 18.4709C64.8389 19.2341 64.9733 19.9584 65.242 20.6439C65.5107 21.3295 65.8754 21.931 66.3361 22.4483C66.8095 22.9657 67.3598 23.3732 67.9868 23.6707C68.6266 23.9682 69.3048 24.1169 70.0214 24.1169C70.738 24.1169 71.4098 23.9617 72.0368 23.6513C72.6766 23.3279 73.2333 22.9075 73.7067 22.3901C74.1802 21.8598 74.5513 21.2583 74.82 20.5857C75.1015 19.9002 75.2423 19.1952 75.2423 18.4709Z" fill="white"/>
<path d="M89.4846 36.9612V31.6256L92.4021 31.6644C92.914 31.6644 93.4066 31.5803 93.8801 31.4122C94.3536 31.244 94.7887 31.0112 95.1853 30.7137C95.5948 30.4162 95.9531 30.0605 96.2602 29.6466C96.5673 29.2456 96.8169 28.8058 97.0088 28.3272C96.433 28.573 95.8443 28.8187 95.2429 29.0645C94.6543 29.3103 94.0593 29.4331 93.4578 29.4331C92.191 29.4331 91.0009 29.2068 89.8877 28.7541C88.7744 28.3013 87.7955 27.6611 86.9509 26.8332C86.1192 25.9925 85.4601 24.9771 84.9739 23.7871C84.5004 22.5842 84.2637 21.2389 84.2637 19.7514V8.26534H89.4846V19.7514C89.4846 20.4887 89.587 21.1355 89.7917 21.6917C90.0092 22.2349 90.2971 22.6941 90.6554 23.0692C91.0137 23.4314 91.4296 23.703 91.9031 23.8841C92.3893 24.0652 92.9076 24.1557 93.4578 24.1557C93.9953 24.1557 94.5007 24.0329 94.9742 23.7871C95.4605 23.5284 95.8827 23.1921 96.241 22.7782C96.5993 22.3643 96.8808 21.8986 97.0856 21.3812C97.2903 20.8509 97.3927 20.3076 97.3927 19.7514V8.26534H102.671V26.4258C102.658 27.8874 102.377 29.2585 101.827 30.5391C101.276 31.8196 100.521 32.9385 99.5617 33.8956C98.6147 34.8528 97.5079 35.6095 96.241 36.1657C94.9742 36.7219 93.6178 37 92.1718 37L89.4846 36.9612Z" fill="white"/>
<path d="M117.969 29.0451H105.992V23.7677H117.969C118.327 23.7677 118.635 23.6384 118.89 23.3797C119.146 23.121 119.274 22.8105 119.274 22.4483C119.274 22.0732 119.146 21.8275 118.89 21.7111C118.635 21.5947 118.327 21.5364 117.969 21.5364H112.518C111.609 21.5364 110.758 21.3618 109.965 21.0126C109.172 20.6633 108.481 20.1912 107.892 19.5962C107.303 18.9883 106.836 18.2833 106.491 17.4814C106.158 16.6794 105.992 15.8193 105.992 14.9009C105.992 13.9825 106.158 13.1224 106.491 12.3204C106.836 11.5184 107.303 10.82 107.892 10.225C108.481 9.62996 109.172 9.16431 109.965 8.828C110.758 8.47876 111.609 8.30414 112.518 8.30414H123.132V13.5815H112.518C112.16 13.5815 111.853 13.7109 111.597 13.9696C111.341 14.2283 111.213 14.5387 111.213 14.9009C111.213 15.276 111.341 15.5994 111.597 15.871C111.853 16.1297 112.16 16.259 112.518 16.259H117.969C118.865 16.259 119.709 16.4143 120.503 16.7247C121.296 17.0222 121.987 17.4426 122.576 17.9858C123.164 18.5291 123.632 19.1823 123.977 19.9455C124.323 20.7086 124.495 21.5429 124.495 22.4483C124.495 23.3667 124.323 24.2269 123.977 25.0288C123.632 25.8179 123.164 26.5163 122.576 27.1243C121.987 27.7193 121.296 28.1914 120.503 28.5406C119.709 28.8769 118.865 29.0451 117.969 29.0451Z" fill="#18A0FB"/>
<path d="M135.475 23.9617C135.679 24.0264 135.884 24.0717 136.089 24.0975C136.293 24.1105 136.498 24.1169 136.703 24.1169C137.215 24.1169 137.707 24.0458 138.181 23.9035C138.654 23.7612 139.096 23.5607 139.505 23.302C139.928 23.0304 140.299 22.707 140.619 22.3319C140.951 21.9439 141.22 21.517 141.425 21.0514L145.264 24.9512C144.777 25.6497 144.214 26.2771 143.575 26.8332C142.948 27.3894 142.263 27.8616 141.521 28.2496C140.791 28.6377 140.017 28.9287 139.198 29.1227C138.392 29.3297 137.56 29.4331 136.703 29.4331C135.257 29.4331 133.894 29.1615 132.615 28.6182C131.348 28.075 130.234 27.3183 129.275 26.3482C128.328 25.3781 127.579 24.2269 127.029 22.8946C126.479 21.5494 126.204 20.0748 126.204 18.4709C126.204 16.8282 126.479 15.3277 127.029 13.9696C127.579 12.6114 128.328 11.4538 129.275 10.4966C130.234 9.53942 131.348 8.79567 132.615 8.26534C133.894 7.73501 135.257 7.46985 136.703 7.46985C137.56 7.46985 138.398 7.57333 139.217 7.78028C140.036 7.98724 140.811 8.28474 141.54 8.67278C142.282 9.06083 142.973 9.53942 143.613 10.1085C144.253 10.6647 144.816 11.2921 145.302 11.9906L135.475 23.9617ZM138.162 13.0383C137.919 12.9477 137.675 12.8895 137.432 12.8637C137.202 12.8378 136.959 12.8249 136.703 12.8249C135.986 12.8249 135.308 12.9607 134.668 13.2323C134.041 13.491 133.491 13.8661 133.018 14.3576C132.557 14.8492 132.192 15.4442 131.924 16.1426C131.655 16.8282 131.52 17.6043 131.52 18.4709C131.52 18.6649 131.527 18.8848 131.54 19.1306C131.565 19.3763 131.597 19.6286 131.636 19.8873C131.687 20.133 131.744 20.3723 131.808 20.6051C131.872 20.838 131.956 21.0449 132.058 21.226L138.162 13.0383Z" fill="#18A0FB"/>
<path d="M158.258 29.0451C156.992 29.0451 155.801 28.8058 154.688 28.3272C153.575 27.8357 152.596 27.1696 151.751 26.3288C150.92 25.4751 150.261 24.4856 149.774 23.3603C149.301 22.2349 149.064 21.032 149.064 19.7514V13.5815H146.511V8.30414H149.064V0H154.285V8.30414H162.232V13.5815H154.285V19.7514C154.285 20.3076 154.387 20.8315 154.592 21.323C154.797 21.8016 155.078 22.222 155.437 22.5842C155.795 22.9463 156.217 23.2374 156.704 23.4573C157.19 23.6642 157.708 23.7677 158.258 23.7677H162.232V29.0451H158.258Z" fill="#18A0FB"/>
<path d="M176.474 29.0451H164.497V23.7677H176.474C176.832 23.7677 177.139 23.6384 177.395 23.3797C177.651 23.121 177.779 22.8105 177.779 22.4483C177.779 22.0732 177.651 21.8275 177.395 21.7111C177.139 21.5947 176.832 21.5364 176.474 21.5364H171.023C170.114 21.5364 169.263 21.3618 168.47 21.0126C167.676 20.6633 166.985 20.1912 166.397 19.5962C165.808 18.9883 165.341 18.2833 164.996 17.4814C164.663 16.6794 164.497 15.8193 164.497 14.9009C164.497 13.9825 164.663 13.1224 164.996 12.3204C165.341 11.5184 165.808 10.82 166.397 10.225C166.985 9.62996 167.676 9.16431 168.47 8.828C169.263 8.47876 170.114 8.30414 171.023 8.30414H181.637V13.5815H171.023C170.664 13.5815 170.357 13.7109 170.101 13.9696C169.845 14.2283 169.717 14.5387 169.717 14.9009C169.717 15.276 169.845 15.5994 170.101 15.871C170.357 16.1297 170.664 16.259 171.023 16.259H176.474C177.37 16.259 178.214 16.4143 179.008 16.7247C179.801 17.0222 180.492 17.4426 181.081 17.9858C181.669 18.5291 182.136 19.1823 182.482 19.9455C182.827 20.7086 183 21.5429 183 22.4483C183 23.3667 182.827 24.2269 182.482 25.0288C182.136 25.8179 181.669 26.5163 181.081 27.1243C180.492 27.7193 179.801 28.1914 179.008 28.5406C178.214 28.8769 177.37 29.0451 176.474 29.0451Z" fill="#18A0FB"/>
<path d="M182 27V20" stroke="white" stroke-width="2" stroke-linecap="round" stroke-linejoin="round"/>
<path d="M182 16V9" stroke="white" stroke-width="2" stroke-linecap="round" stroke-linejoin="round"/>
<path d="M190 27V18" stroke="white" stroke-width="2" stroke-linecap="round" stroke-linejoin="round"/>
<path d="M190 14V9" stroke="white" stroke-width="2" stroke-linecap="round" stroke-linejoin="round"/>
<path d="M198 27V22" stroke="white" stroke-width="2" stroke-linecap="round" stroke-linejoin="round"/>
<path d="M198 18V9" stroke="white" stroke-width="2" stroke-linecap="round" stroke-linejoin="round"/>
<path d="M179 20H185" stroke="white" stroke-width="2" stroke-linecap="round" stroke-linejoin="round"/>
<path d="M187 14H193" stroke="white" stroke-width="2" stroke-linecap="round" stroke-linejoin="round"/>
<path d="M195 22H201" stroke="white" stroke-width="2" stroke-linecap="round" stroke-linejoin="round"/>
</svg>
