<svg xmlns="http://www.w3.org/2000/svg" width="137" height="25" fill="none"><path fill="#fff" d="M8.093 19.625H0V16.06h8.093c.242 0 .45-.087.622-.262a.863.863 0 0 0 .26-.63c0-.253-.087-.419-.26-.497a1.496 1.496 0 0 0-.622-.118H4.41a4.233 4.233 0 0 1-1.725-.354 4.5 4.5 0 0 1-1.401-.957 4.717 4.717 0 0 1-.947-1.43A4.504 4.504 0 0 1 0 10.069c0-.62.112-1.202.337-1.743a4.552 4.552 0 0 1 .947-1.416 4.32 4.32 0 0 1 1.4-.944A4.233 4.233 0 0 1 4.41 5.61h7.171v3.566H4.41a.844.844 0 0 0-.623.262.863.863 0 0 0-.26.63c0 .253.087.471.26.655.173.174.38.262.623.262h3.683c.605 0 1.176.105 1.712.314a4.23 4.23 0 0 1 1.4.853 4.055 4.055 0 0 1 1.297 3.015 4.36 4.36 0 0 1-.35 1.743 4.767 4.767 0 0 1-.947 1.416 4.5 4.5 0 0 1-1.4.957 4.341 4.341 0 0 1-1.712.341ZM21.36 19.625c-.856 0-1.66-.162-2.412-.485a6.515 6.515 0 0 1-1.984-1.35 6.596 6.596 0 0 1-1.336-2.006 6.223 6.223 0 0 1-.48-2.438v-4.17h-1.725V5.612h1.725V0h3.528v5.61h5.369v3.567h-5.37v4.169c0 .375.07.73.208 1.061.139.324.329.608.57.853.243.244.528.44.857.59.328.14.678.21 1.05.21h2.685v3.565H21.36ZM36.249 17.986a9.862 9.862 0 0 1-.92.748c-.32.227-.658.428-1.012.603a6.14 6.14 0 0 1-1.103.393 4.183 4.183 0 0 1-1.141.157c-.856 0-1.66-.153-2.412-.459a6.076 6.076 0 0 1-1.985-1.297 6.248 6.248 0 0 1-1.335-2.059c-.32-.812-.48-1.721-.48-2.726V5.585h3.527v7.76c0 .473.07.896.208 1.272.147.367.341.677.583.931.243.253.524.446.843.577.329.13.68.196 1.05.196.364 0 .706-.083 1.025-.249.329-.174.614-.402.856-.681.242-.28.433-.595.571-.944.138-.359.208-.726.208-1.101V5.585h3.54v14.04h-.856l-1.167-1.639ZM54.406 19.625h-.856l-1.375-1.927c-.337.306-.696.594-1.076.865a8.388 8.388 0 0 1-1.18.695 7.495 7.495 0 0 1-1.284.459c-.433.113-.874.17-1.323.17a6.996 6.996 0 0 1-2.763-.55 7.235 7.235 0 0 1-2.256-1.547 7.431 7.431 0 0 1-1.518-2.347c-.371-.909-.557-1.896-.557-2.963 0-1.057.185-2.04.557-2.95a7.395 7.395 0 0 1 1.518-2.359 7.127 7.127 0 0 1 2.256-1.56 6.854 6.854 0 0 1 2.763-.564c.311 0 .63.026.96.079.337.052.66.14.972.262.32.114.618.267.895.459s.51.428.7.708V0h3.567v19.625Zm-3.567-7.145c0-.49-.095-.961-.285-1.415a3.888 3.888 0 0 0-.752-1.22 3.612 3.612 0 0 0-1.129-.852 2.928 2.928 0 0 0-1.361-.328c-.484 0-.943.088-1.375.263a3.259 3.259 0 0 0-1.115.76 3.515 3.515 0 0 0-.74 1.193 4.426 4.426 0 0 0-.272 1.6c0 .515.09 1.004.272 1.468.182.463.428.87.74 1.219.32.35.691.625 1.115.826.432.2.89.301 1.375.301.484 0 .938-.105 1.361-.314a3.898 3.898 0 0 0 1.129-.852c.32-.359.57-.765.752-1.22.19-.463.285-.94.285-1.429ZM60.463 24.974v-3.605l1.97.026c.347 0 .68-.057 1-.17.32-.114.613-.272.881-.473a3.36 3.36 0 0 0 .727-.72c.207-.271.376-.569.505-.892-.389.166-.786.332-1.193.498-.397.166-.8.25-1.206.25-.856 0-1.66-.154-2.412-.46a6.076 6.076 0 0 1-1.984-1.297 6.246 6.246 0 0 1-1.336-2.059c-.32-.812-.48-1.721-.48-2.726V5.585h3.528v7.76c0 .499.069.936.207 1.311.147.368.342.678.584.931.242.245.523.429.843.55.328.123.678.184 1.05.184.363 0 .705-.083 1.025-.249.328-.174.614-.402.856-.681a3.27 3.27 0 0 0 .57-.944c.139-.359.208-.726.208-1.101V5.585h3.566v12.27a7.164 7.164 0 0 1-2.101 5.047 7.188 7.188 0 0 1-2.243 1.534 6.763 6.763 0 0 1-2.75.564l-1.815-.026Z"/><path fill="#18A0FB" d="M79.709 19.625h-8.093V16.06h8.093c.242 0 .45-.087.622-.262a.863.863 0 0 0 .26-.63c0-.253-.087-.419-.26-.497a1.496 1.496 0 0 0-.622-.118h-3.683a4.233 4.233 0 0 1-1.725-.354 4.501 4.501 0 0 1-1.401-.957 4.717 4.717 0 0 1-.947-1.43 4.504 4.504 0 0 1-.337-1.743c0-.62.112-1.202.337-1.743a4.552 4.552 0 0 1 .947-1.416 4.321 4.321 0 0 1 1.4-.944 4.234 4.234 0 0 1 1.726-.354h7.172v3.566h-7.172a.844.844 0 0 0-.623.262.863.863 0 0 0-.26.63c0 .253.087.471.26.655.173.174.38.262.623.262h3.683c.605 0 1.176.105 1.712.314a4.23 4.23 0 0 1 1.4.853 4.055 4.055 0 0 1 1.297 3.015 4.36 4.36 0 0 1-.35 1.743 4.767 4.767 0 0 1-.947 1.416 4.499 4.499 0 0 1-1.4.957 4.341 4.341 0 0 1-1.712.341ZM91.537 16.19c.138.044.276.075.415.092.138.009.276.013.415.013.346 0 .679-.048.998-.144a3.398 3.398 0 0 0 1.647-1.062c.225-.262.407-.55.545-.865l2.594 2.635a6.9 6.9 0 0 1-1.141 1.272 6.902 6.902 0 0 1-1.388.957 6.532 6.532 0 0 1-1.57.59c-.544.14-1.106.21-1.685.21a6.996 6.996 0 0 1-2.763-.551 7.053 7.053 0 0 1-2.256-1.534 7.277 7.277 0 0 1-1.518-2.334c-.371-.909-.557-1.905-.557-2.989 0-1.11.186-2.123.557-3.041.372-.918.878-1.7 1.518-2.347a6.98 6.98 0 0 1 2.256-1.507 7.143 7.143 0 0 1 2.763-.538 6.955 6.955 0 0 1 3.268.813c.502.262.968.586 1.4.97.433.376.814.8 1.142 1.272l-6.64 8.088Zm1.816-7.38a2.021 2.021 0 0 0-.493-.118 4.419 4.419 0 0 0-.493-.027c-.484 0-.943.092-1.375.276a3.26 3.26 0 0 0-1.115.76 3.663 3.663 0 0 0-.74 1.206 4.284 4.284 0 0 0-.272 1.573c0 .131.005.28.013.446.017.166.039.336.065.511.035.166.073.328.117.485.043.158.1.297.168.42l4.125-5.532ZM106.931 19.625a6.04 6.04 0 0 1-2.412-.485 6.509 6.509 0 0 1-1.984-1.35 6.585 6.585 0 0 1-1.336-2.006 6.222 6.222 0 0 1-.48-2.438v-4.17h-1.725V5.612h1.725V0h3.528v5.61h5.369v3.567h-5.369v4.169c0 .375.069.73.207 1.061.139.324.329.608.571.853.242.244.527.44.856.59.328.14.679.21 1.05.21h2.685v3.565h-2.685ZM119.239 19.625h-8.093V16.06h8.093c.242 0 .45-.087.623-.262a.862.862 0 0 0 .259-.63c0-.253-.086-.419-.259-.497a1.5 1.5 0 0 0-.623-.118h-3.683a4.233 4.233 0 0 1-1.725-.354 4.505 4.505 0 0 1-1.401-.957 4.72 4.72 0 0 1-.946-1.43 4.5 4.5 0 0 1-.338-1.743c0-.62.113-1.202.338-1.743a4.555 4.555 0 0 1 .946-1.416 4.325 4.325 0 0 1 1.401-.944 4.233 4.233 0 0 1 1.725-.354h7.172v3.566h-7.172a.846.846 0 0 0-.623.262.862.862 0 0 0-.259.63c0 .253.086.471.259.655a.846.846 0 0 0 .623.262h3.683c.605 0 1.176.105 1.712.314a4.056 4.056 0 0 1 2.698 3.867 4.35 4.35 0 0 1-.351 1.744 4.769 4.769 0 0 1-.946 1.416 4.505 4.505 0 0 1-1.401.957 4.342 4.342 0 0 1-1.712.341Z"/><path stroke="#fff" stroke-linecap="round" stroke-linejoin="round" stroke-width="1.351" d="M122.973 18.243v-4.73M122.973 10.81V6.08M128.379 18.243v-6.08M128.379 9.46V6.08M133.783 18.243v-3.378M133.783 12.162V6.08M120.945 13.513h4.054M126.352 9.46h4.054M131.756 14.865h4.054"/></svg>